<svg xmlns="http://www.w3.org/2000/svg" width="20" height="20"><path fill="#fff" d="M9.98.423a2.387 2.387 0 1 0 0 4.774 2.387 2.387 0 0 0 0-4.774M3.567 5.628c-.13.001-.257.024-.373.066-.311.112-.552.331-.749.58a3.3 3.3 0 0 0-.384.64c-.29-.272-.606-.674-.93-1.285l-.678.36c.431.814.878 1.362 1.334 1.707-.017.077-.038.156-.05.229-.085.567.125 1.064.411 1.48.228.332.505.635.773.954a4.9 4.9 0 0 0-.484 2.105c.003 1.227.48 2.422 1.367 3.42l.156-.559.74.206-1.072 3.845c.89.274 1.75.278 2.627-.046l.798-2.845.74.208-.38 1.35a9 9 0 0 0 2.37.327 9 9 0 0 0 1.57-.145l-.381-1.689.748-.169.64 2.834c1.063.48 2.067.45 3.102.052l-1.071-3.367.731-.233.212.667c.93-1.624 2.931-1.24 3.915-1.709.498-.166.23-2.979.21-3.114-.017-.102-1.269-.162-1.713-.095-.255.038-.697-.515-1.168-1.177a5.7 5.7 0 0 0-.884-1.259c-.17-.225-.117-.131-.279-.276.03.286.09.525.177.692l-.681.353c-.315-.607-.34-1.4-.242-2.253a10 10 0 0 1 .385-1.78c-.503.289-.964.746-1.365 1.305-.582.812-1.028 1.813-1.306 2.67l-.73-.237c.118-.365.264-.752.437-1.144-.617-.28-1.512-.416-2.448-.376-1.017.043-2.082.286-2.9.69l-.34-.688c.943-.465 2.094-.722 3.207-.769q.21-.008.416-.008c.882.004 1.721.144 2.399.46q.142-.271.304-.535a8.9 8.9 0 0 0-2.944-.513c-2.695.003-5.172 1.19-6.454 3.096-.211-.248-.406-.474-.55-.682-.224-.326-.324-.583-.285-.9.446.134.88.087 1.223-.08.44-.216.743-.59.873-.998.065-.203.088-.42.035-.636a.9.9 0 0 0-.41-.552 1.26 1.26 0 0 0-.65-.177m.014.76h.042a.5.5 0 0 1 .205.078c.037.022.042.03.053.074.01.043.01.123-.02.22a1 1 0 0 1-.48.541.84.84 0 0 1-.667.036 2.7 2.7 0 0 1 .333-.587c.14-.177.288-.292.407-.334a.4.4 0 0 1 .127-.029zm11.857 4.205a.682.682 0 1 1 0 1.364.682.682 0 0 1 0-1.364"/></svg>