<svg xmlns="http://www.w3.org/2000/svg" width="20" height="20" viewBox="0 0 180 180"><circle cx="90" cy="91.566" r="75.91" style="fill:none;stroke-width:6;stroke-dasharray:none;stroke:#000;stroke-opacity:1;stroke-linejoin:miter"/><path d="M84.432 3.838c-.626 4.891-2.177 9.606-3.719 14.27-1.972 5.545-4.11 11.03-6.487 16.416-1.05 2.378-2.173 4.723-3.252 7.088-5.736 12.562-2.035 4.672-8.192 17.55-6.22 12.843-12.152 25.822-18.25 38.722-2.993 6.33-5.561 11.613-8.595 17.893-4.516 9.069-8.773 18.268-13.36 27.302-2.08 4.095-2.659 5.094-4.77 8.962-2.032 3.329-3.949 6.979-7.051 9.472-1.247 1.001-1.97 1.29-3.368 2.016l12.023 7.83c1.29-.774 2.42-1.366 3.534-2.411.542-.51 1.01-1.097 1.462-1.688 2.022-2.647 3.509-5.654 4.962-8.633 5.667-12.336 10.869-24.88 16.501-37.232 8.522-19.064 17.267-38.034 26.695-56.67 1.503-2.962 2.973-5.941 4.508-8.888 1.441-2.768 2.97-5.49 4.42-8.253 3.936-7.508 7.67-15.133 11.119-22.878 1.123-2.793 1.624-3.953 2.606-6.695.757-2.114.848-2.555 1.509-4.58.275-.842.572-1.676.846-2.518z" style="fill:#000"/><path d="M73.933 1.82c2.103 3.524 3.486 7.447 4.816 11.311 1.716 4.987 2.29 7.071 3.853 12.232 4.761 16.789 9.114 33.69 13.227 50.65 2.322 9.943 4.605 19.901 7.36 29.737 1.53 5.46 2.113 7.205 3.774 12.538 2.735 8.536 5.688 17.074 10.044 24.944.756 1.367 1.602 2.684 2.403 4.026 2.893 4.5 6.181 8.746 9.737 12.743 2.047 2.301 3.197 3.429 5.344 5.628 2.22 2.339 4.641 4.457 7.118 6.514l13.017 5.216c-.772-.584-1.564-1.143-2.316-1.753-2.32-1.88-3.034-2.652-5.236-4.754-.906-.91-1.825-1.807-2.718-2.73-4.655-4.814-8.963-9.988-12.783-15.489-.838-1.326-1.722-2.625-2.514-3.98-4.586-7.845-7.701-16.42-10.651-24.978-.68-2.029-1.388-4.048-2.042-6.086-3.858-12.029-6.925-24.291-10.013-36.534-2.262-8.871-4.552-17.736-6.72-26.632-2.55-10.462-1.519-6.524-3.956-16.57-.576-2.373-1.173-4.742-1.76-7.113-1.29-4.874-1.898-7.226-3.213-11.981-.424-1.532-.877-3.057-1.296-4.59-.31-1.134-.566-2.281-.888-3.411-.326-1.149-.593-1.799-.99-2.836Z" style="fill:#000"/><path d="M15.991 124.99c.3-.135.592-.285.898-.404 2.509-.973 5.153-1.66 7.745-2.357 3.761-1.012 7.531-1.99 11.294-2.996 2.597-.747 5.198-1.485 7.792-2.241 6.626-1.931 13.226-3.946 19.852-5.874 11.817-3.44 23.691-6.656 35.581-9.83 13.244-3.64 26.672-6.645 39.809-10.676 6.208-1.904 7.381-2.427 13.23-4.595 5.378-2.21 10.786-4.47 15.78-7.477 2.021-1.217 2.435-1.597 4.244-2.96 1.944-1.553 3.583-3.427 5.187-5.315l-12.465-7.46c-1.439 1.862-2.953 3.677-4.757 5.205-1.523 1.265-2.161 1.849-3.845 3-4.597 3.145-9.637 5.587-14.659 7.959-5.533 2.355-6.58 2.897-12.494 4.978-12.642 4.45-25.63 7.846-38.51 11.513-15.858 4.28-8.24 2.25-24.244 6.464-13.555 3.57-27.092 7.236-40.8 10.183-2.244.459-4.484.933-6.731 1.376-5.07 1-10.17 1.85-15.204 3.024z" style="fill:#000"/></svg>