<svg xmlns="http://www.w3.org/2000/svg" xml:space="preserve" width="200" height="200"><path d="m115.02 14.746-45.45 3.906-17.812 27.54.566 28.398-8.066 6.953 5 8.633-4.727 18.34 20.04 46.23 6.113 20.586 73.203-10.293 11.406-31.445v-25.078l-5.566-23.36-2.5-14.18-13.36-35.917zM97.695 80.43l31.172 1.113 12.52 13.496-2.793 11.836-30.88-9.18-15.585.547H64.844l13.633-10.566Z" style="display:inline;fill:#000;fill-opacity:1;stroke-width:1;stroke-dasharray:2,1,.5,1"/><path d="m112.768 93.087 6.69-5.117h10.825l-1.968 7.07h-8.266zM96.04 93.48l-7.676-3.542-9.171 2.458-2.648 2.648 5.646 1.513zM53.437 136.377l8.49 19.343 6.679 22.126-.14 22.154H26.58l.278-23.267 1.252-28.388zM157.807 135.264l-9.462 26.58 4.314 20.456 5.288 5.288-.14 12.412h30.755l-.974-27.442-1.392-25.327zM0 170.75l7.793-9.324 17.117-8.49 1.67-1.005-1.34 25.142L25.043 200H0ZM200 154.676l-12.497-5.697 1.059 20.763L189.717 200H200Z" style="fill:#000;fill-opacity:.99835;stroke-width:1;stroke-dasharray:2,1,.5,1"/><path d="m70.75 177.515 76.163-10.824 3.345 17.319 5.035 5.117V200H70.75Z" style="fill:#000;fill-opacity:.99835;stroke-width:1;stroke-dasharray:2,1,.5,1"/></svg>