<svg xmlns="http://www.w3.org/2000/svg" width="20" height="20"><path d="m8.606.427.53 2.53.537.117v.363l-3.118.786 1.034 6.74 1.257.282v7.096l-2.142 1.232h6.633l-2.142-1.232v-7.096l1.257-.281 1.034-6.74-3.118-.787v-.363l.538-.116.529-2.531H10.02z" style="fill:#000;stroke-width:25.4068"/><path d="M19.928 6.54s-1.773.102-2.015-1.111c-.24-1.213 1.412-2.372.724-3.786C17.947.23 16.034-.477 14.926.52s-1.93 2.977-.898 3.835c1.031.86 2.608 2.883 1.174 4.068-1.433 1.185-3.47.09-3.47.09s.925 2.043 2.122 1.862c1.197-.18 4.373.282 3.722-2.659s-1.94-3.625-2.02-4.116c-.078-.49 1.023-2.427 1.234-1.222.21 1.205-.008 2.662.673 4.127.681 1.466 2.465.036 2.465.036M.113 6.54s1.774.102 2.015-1.111-1.412-2.372-.723-3.786S4.007-.477 5.115.52s1.93 2.977.899 3.835c-1.032.86-2.609 2.883-1.175 4.068s3.47.09 3.47.09-.925 2.043-2.122 1.862c-1.197-.18-4.373.282-3.721-2.659S4.406 4.091 4.485 3.6 3.462 1.173 3.252 2.378s.007 2.662-.674 4.127c-.68 1.466-2.465.036-2.465.036" style="fill:#000;stroke:none;stroke-width:.1;stroke-dasharray:.2,.1,.05,.1;stroke-dashoffset:0;stroke-opacity:1"/><path d="M13.004 9.358s-.453.42.85 1.017c1.304.597 1.282-.619 2.763.287s.287 3.293.287 3.293-.597-1.039-.486-1.812-1.039-.641-1.658-.376c-.618.265-1.706.572-2.231-.066s-1.26-1.304-1.26-1.304zM7.038 9.358s.453.42-.851 1.017-1.282-.619-2.762.287-.287 3.293-.287 3.293.596-1.039.486-1.812 1.038-.641 1.657-.376 1.707.572 2.232-.066 1.26-1.304 1.26-1.304z" style="fill:#000;stroke:none;stroke-width:.1;stroke-dasharray:.2,.1,.05,.1;stroke-dashoffset:0;stroke-opacity:1"/></svg>