<svg xmlns="http://www.w3.org/2000/svg" width="20" height="20"><path d="M8.25 10.838c-.696.361-1.427-.296-1.583-.952-.274-1.157.715-2.18 1.81-2.33 1.6-.22 2.945 1.134 3.079 2.669.178 2.038-1.556 3.714-3.528 3.825-2.477.14-4.486-1.976-4.573-4.386-.104-2.914 2.398-5.26 5.245-5.32 3.352-.07 6.035 2.818 6.068 6.103.037 3.79-3.24 6.81-6.962 6.815-4.227.005-7.587-3.66-7.563-7.82a8.27 8.27 0 0 1 1.59-4.798" style="fill:none;fill-rule:evenodd;stroke:#000;stroke-width:1.68426688;stroke-dasharray:none" transform="translate(3.785 1.692)scale(.79144)"/><path d="M2.99 5.184.82 3.014l3.544.95s-.92.419-1.135.796z" style="fill:none;fill-opacity:1;stroke:none;stroke-width:.825226;stroke-dasharray:none;stroke-opacity:1"/><path d="M.032 3.18 4.04 7.187l.811-1.225.656-1.315Z" style="fill:#000;fill-opacity:1;stroke:none;stroke-width:1.36526;stroke-dasharray:none;stroke-opacity:1"/><path d="m.395 9.967 3.308.887.055-.887-.055-.886ZM3.304 16.509l2.966-1.713-.588-.665-.666-.588ZM10 19.072l.886-3.308-.887-.054-.886.054z" style="fill:#000;fill-opacity:1;stroke:none;stroke-width:.825226;stroke-dasharray:none;stroke-opacity:1"/><path d="m18.32 17.913-2.982-5.165-1.159 1.025-1.025 1.158z" style="fill:#000;fill-opacity:1;stroke:none;stroke-width:1.43702;stroke-dasharray:none;stroke-opacity:1"/><path d="m19.823 9.81-3.976-1.066-.066 1.066.066 1.066z" style="fill:#000;fill-opacity:1;stroke:none;stroke-width:.991988;stroke-dasharray:none;stroke-opacity:1"/><path d="M16.076 3.468 13.11 5.18l.588.666.665.588z" style="fill:#000;fill-opacity:1;stroke:none;stroke-width:.825226;stroke-dasharray:none;stroke-opacity:1"/><path d="M4.835 5.399S6.008 3.71 6.943 3.382s2.193-.399 2.193-.399-.402.152-1.64 1.128-1.837 1.823-1.837 1.823Z" style="fill:#000;fill-opacity:1;stroke:none;stroke-width:1.27425;stroke-dasharray:none;stroke-opacity:1"/></svg>