<svg xmlns="http://www.w3.org/2000/svg" width="20" height="20"><path d="M9.999.28 8.736 2.468v12.64H6.132v.688h3.04v2.921a1 1 0 0 0-.018.168.836.836 0 0 0 .836.835.836.836 0 0 0 .827-.725h.009v-3.199h3.042v-.688h-2.604V2.467Z" style="fill:#fff;stroke-width:.21962;stroke-dasharray:.21962,.21962"/><path d="M.169 0s-.9 4.24 1.452 8.48c2.352 4.239 6.973 6.62 6.973 6.62v-.84a.928.774 0 0 1-.102.004.928.774 0 0 1-.93-.773.928.774 0 0 1 .305-.558 2.073 1.594 0 0 1-.057.003 2.073 1.594 0 0 1-2.071-1.594A2.073 1.594 0 0 1 7.19 9.824V9.03a1.61 1.191 0 0 1-.525-.877A1.61 1.191 0 0 1 7.749 7.03v-.44h.513a.944 1.114 0 0 1-.42-.928.944 1.114 0 0 1 .023-.228 2.615 2.615 0 0 1-2.53-2.603 2.6 2.6 0 0 1 .204-.997c-.354.02-.73.02-1.131-.009C1.87 1.641.168 0 .168 0M19.831 0s.9 4.24-1.452 8.48c-2.352 4.239-6.973 6.62-6.973 6.62v-.84a.928.774 0 0 0 .102.004.928.774 0 0 0 .93-.773.928.774 0 0 0-.305-.558 2.073 1.594 0 0 0 .057.003 2.073 1.594 0 0 0 2.071-1.594 2.073 1.594 0 0 0-1.452-1.518V9.03a1.61 1.191 0 0 0 .525-.877 1.61 1.191 0 0 0-1.083-1.123v-.44h-.513a.944 1.114 0 0 0 .42-.928.944 1.114 0 0 0-.023-.228 2.615 2.615 0 0 0 2.53-2.603 2.6 2.6 0 0 0-.204-.997c.354.02.73.02 1.131-.009C18.13 1.641 19.832 0 19.832 0" style="fill:#fff;stroke-width:.216802;stroke-dasharray:.216802,.216802"/></svg>