<svg xmlns="http://www.w3.org/2000/svg" width="20" height="20"><path d="M7.906 1.49 4.92 5.215 0 1.674l3.055 9.654h2.18a3.535 3.535 0 0 1 3.503-3.117 3.5 3.5 0 0 1 .948.139 2.02 2.02 0 0 1 1.544-.725 2 2 0 0 1 .352.033 5.34 5.34 0 0 1 2.549-.672l1.681-5.312-4.92 3.54z" style="fill:#fff;stroke-width:8.83712"/><path d="M9.63 16.143c.264-.153.336.28.253.439-.223.429-.827.345-1.132.068-.545-.497-.391-1.367.118-1.825.748-.673 1.914-.441 2.518.303.804.992.492 2.464-.49 3.21-1.234.94-3.015.544-3.902-.674-1.075-1.476-.597-3.569.86-4.596 1.716-1.21 4.122-.649 5.289 1.046 1.347 1.957.701 4.675-1.232 5.981-2.197 1.485-5.229.755-6.674-1.417-1.622-2.436-.808-5.782 1.603-7.367 2.676-1.759 6.336-.861 8.06 1.789" style="fill:none;fill-rule:evenodd;stroke:#fff;stroke-opacity:1" transform="translate(4.014 -2.143)"/><ellipse cx="7.953" cy="9.108" rx=".794" ry=".807" style="fill:#fff;fill-opacity:1;stroke:none;stroke-width:.195;stroke-dasharray:.195,.195;stroke-dashoffset:0;stroke-opacity:1"/><ellipse cx="6.144" cy="10.984" rx=".338" ry=".344" style="fill:#fff;fill-opacity:1;stroke:none;stroke-width:.0830825;stroke-dasharray:.0830825,.0830825;stroke-dashoffset:0;stroke-opacity:1"/><ellipse cx="7.651" cy="10.984" rx=".482" ry=".49" style="fill:#fff;fill-opacity:1;stroke:none;stroke-width:.118329;stroke-dasharray:.118329,.118329;stroke-dashoffset:0;stroke-opacity:1"/></svg>