<svg xmlns="http://www.w3.org/2000/svg" width="20" height="20"><path d="M2.895 17.562c.288-.017.165.381.027.48-.372.268-.848-.06-.988-.424-.25-.653.25-1.325.877-1.496.92-.252 1.81.441 2.004 1.329.26 1.183-.632 2.297-1.781 2.512-1.446.27-2.787-.824-3.02-2.234-.282-1.708 1.014-3.277 2.686-3.528 1.97-.295 3.768 1.205 4.035 3.138.309 2.232-1.396 4.26-3.59 4.544-2.493.322-4.752-1.587-5.051-4.043-.337-2.755 1.777-5.243 4.494-5.56 3.017-.35 5.736 1.97 6.068 4.948" style="fill:none;fill-rule:evenodd;stroke:#fff;stroke-opacity:1" transform="matrix(1.24152 0 0 .44558 6.509 9.637)"/><path d="M9.999.167A1.02 1.02 0 0 0 8.98 1.185a1.02 1.02 0 0 0 .67.956l-.017-.003v.466l-2.728.73 1.54 5.749 1.554 7.738 1.557-7.738 1.54-5.75-2.731-.73v-.465l-.012.003a1.02 1.02 0 0 0 .667-.956A1.02 1.02 0 0 0 9.999.167" style="fill:#fff;stroke-width:.242097;stroke-dasharray:.242097,.242097"/><path d="m.64 6.374 1.197-4.342L4.003 12.83ZM6.68 14.166 5.232 8.494l.975 1.33zM3.368 15.586l-1.754-1.169v-2.06l1.225.863zM19.36 6.374l-1.197-4.342-2.166 10.799ZM13.32 14.166l1.448-5.672-.975 1.33zM16.632 15.586l1.754-1.169v-2.06l-1.225.863z" style="fill:#fff;stroke-width:.195;stroke-dasharray:.195,.195"/></svg>