<svg xmlns="http://www.w3.org/2000/svg" width="20" height="20"><path fill="#fff" d="M10.1.504c7.177 5.626 7.321 9.775 5.148 11.92l2.253 2.253C20.815 10.605 20.527 3.505 10.1.503m-1.536.877a7 7 0 0 1-2.049.273c-.554-.011-1.04-.058-1.414-.26L.537 5.958 2.77 8.191 9.073 1.89ZM6.893 5.099 5.118 6.874l12.459 12.46c.122.12.26.141.51.066.248-.076.555-.273.807-.525s.449-.559.524-.807c.076-.25.055-.388-.066-.51zm-.351 7.277-1.65 1.503 2.057 2.038c2.42 2.017 5.112 2.156 7.37 1.19l-3.047-3.048c-1.771.11-3.59-.424-4.73-1.683m-2.386 1.857c-.224.044-.364.12-.458.213a.75.75 0 0 0-.172.306l2.234 2.14c.221-.041.375-.114.457-.19a.37.37 0 0 0 .125-.305zm-1.001 1.228L.903 17.513c-.678 1.093.595 2.478 2.069 1.808l2.086-2.036z"/></svg>