<svg xmlns="http://www.w3.org/2000/svg" width="200" height="200"><path d="m32.335 64.966-3.52-3.727 8.904-5.59L40.41 48.4l8.697-4.348 9.94-9.525-3.728 8.282 7.662-5.59-2.278 4.762 13.666-3.313-2.898 3.52 16.772-.828-6.005 2.899 16.565 4.97-5.383.828 13.252 10.974 1.864-16.151-12.217-24.02-15.116-7.04 37.246-10.604-5.271 3.807 32.248 6.443 33.054 17.277 18.742 31.04-1.171 25.478-6.736-23.72-9.956-10.25 5.857 24.892-4.1 24.305-7.614-21.67-8.785-22.255 4.1 45.682-10.542 30.748-.586-32.212-30.455-38.655-.293 4.393 18.485 28.405 6.406 16.692-.293 30.162-8.785 32.798-51.54 20.206-26.062-.586 19.328-20.206 4.1 10.25 41.29-26.613-5.565-29.905-10.834-15.52.878 16.691-22.548-3.514.585 10.25-5.857-10.543-11.127-2.342 10.835-3.807h14.349l-.586-8.2-1.171-5.27-14.057-4.1-19.034 7.906-6.442 21.963 16.399 12.885 7.613 2.05-13.763 4.685-19.034-9.37 10.542 16.141h22.841L60.76 169.842l-23.72-10.214 7.028 13.142 16.106 14.935-31.626-8.2L5.12 145.83l2.05-56.81-4.393 9.663 3.514-28.698 22.549 10.25 19.327 2.05 13.47-8.2 9.957 6.15 1.757-2.929-4.393-11.42-14.349-8.493-3.807 1.172 4.393 2.342H40.26Z" style="fill:#000;fill-opacity:.99835;stroke-width:.06576;stroke-dasharray:.13152,.06576,.03288,.06576"/></svg>