<svg xmlns="http://www.w3.org/2000/svg" width="20" height="20"><path d="m15.663 2.17.002 2.159L5.46 14.534l-.54-.54-.012-1.07-1.07-.012-.54-.54L13.505 2.169ZM8.686 16.093l-.113.428-2.97-.796-1.209-1.209-2.29 2.291a1.05 1.05 0 0 1-.306.717 1.053 1.053 0 0 1-1.49 0 1.053 1.053 0 0 1 0-1.49 1.05 1.05 0 0 1 .72-.307l2.288-2.289-1.208-1.208-.797-2.971.429-.113.734 2.744 1.193 1.193 1.072.01.01 1.073 1.194 1.193z" style="fill:#000;fill-opacity:1;stroke:none;stroke-width:.156785;stroke-dasharray:.313569,.156785,.0783924,.156785;stroke-opacity:1"/><path d="m4.337 2.17-.002 2.159L14.54 14.534l.54-.54.012-1.07 1.07-.012.54-.54L6.495 2.169Zm6.977 13.923.113.428 2.97-.796 1.209-1.209 2.29 2.291a1.05 1.05 0 0 0 .306.717 1.053 1.053 0 0 0 1.49 0 1.053 1.053 0 0 0 0-1.49 1.05 1.05 0 0 0-.72-.307l-2.288-2.289 1.208-1.208.797-2.971-.429-.113-.734 2.744-1.193 1.193-1.072.01-.01 1.073-1.194 1.193z" style="fill:#000;fill-opacity:1;stroke:none;stroke-width:.156785;stroke-dasharray:.313569,.156785,.0783924,.156785;stroke-opacity:1"/></svg>